<svg xmlns="http://www.w3.org/2000/svg" xmlns:xlink="http://www.w3.org/1999/xlink" width="375" height="531" viewBox="0 0 375 531"><defs><clipPath id="a"><rect width="375" height="531" fill="#fff"/></clipPath></defs><g clip-path="url(#a)"><g transform="translate(211.475 -1.887)" opacity="0.15"><rect width="19.962" height="93.828" transform="translate(0 157.059)" fill="#68b3ff"/><path d="M160.142,188.005a5.214,5.214,0,1,1,5.556-5.2A5.417,5.417,0,0,1,160.142,188.005Z" transform="translate(-148.503 -40.388)" fill="#68b3ff"/><path d="M179.449,247.267v-6.438H166V225.913h13.449V174.355h20.211v51.533h16.059V240.8H199.635v4.972c0,7.458,5.618,10.565,16.084,8.03v13.449C194.041,274.588,179.8,267.005,179.449,247.267Z" transform="translate(-138.103 -93.609)" fill="#68b3ff"/><path d="M251.689,268.776l-21.279-36.89-22.578,36.89H187.64l33.607-55.547-13.863-25.2h18.445l46.053,80.746Z" transform="translate(-146.305 -188.03)" fill="#68b3ff"/></g><g transform="translate(8.976 -150)" opacity="0.15"><path d="M39.257,209.575c-13.526-.8-19.227-5.116-19.227-10.427,0-4.9,6-9.408,18.122-9.408s19.032,5.506,19.509,11.12l16.734-1.214c-.412-13.223-14.328-25.427-36.352-25.427-20.029,0-34.466,10.838-34.466,24.928,0,12.811,10.838,22.934,34.965,24.343,14.22.889,20.419,4.6,20.419,10.708s-8.411,10.622-20.224,10.622c-12.226,0-21.135-5.311-21.828-11.814L0,234c1.3,16.128,17.341,26.446,38.65,26.446,20.55,0,36.85-11.619,36.85-26.25C75.413,220.673,64.9,211.07,39.257,209.575Z" transform="translate(28.972 -103.504)" fill="#68b3ff"/><rect width="16.888" height="47.792" transform="translate(28.972 129.949)" fill="#68b3ff"/><path d="M133.459,186.88c-9.752,0-17.227,4.058-21.355,10.725-4.058-6.9-11.864-10.725-21.83-10.725-9.3,0-16.444,3.607-20.715,9.634v-6.976H52.76v58.87H72.051V211.866c0-6.027,5.054-10.749,12.291-10.749s11.7,4.176,11.7,9.776v37.7h19.291V211.866c0-6.027,5.054-10.749,12.291-10.749s11.722,4.176,11.722,9.657v37.7h19.291V210.893C158.659,195.849,148.906,186.88,133.459,186.88Z" transform="translate(-23.788 -12.545)" fill="#68b3ff"/><path d="M150.118,186.88c-13.474,0-23.586,5.4-29.564,13.8V189.67h-19V280.08H121.8V242.347c6.1,7.347,15.766,12.08,28.319,12.08,22.416,0,38.306-15.093,38.306-33.724S172.409,186.88,150.118,186.88Zm-4.134,52.6c-14.047,0-24.184-8.518-24.184-18.755s10.137-18.879,24.184-18.879c13.45,0,24.284,8.419,24.284,18.879S159.333,239.483,145.983,239.483Z" transform="translate(14.075 37.234)" fill="#68b3ff"/><path d="M44.126,177.59a4.918,4.918,0,1,0,5.24,4.906A5.109,5.109,0,0,0,44.126,177.59Z" transform="translate(-7.032 -62.359)" fill="#68b3ff"/></g><g transform="translate(-29.884 85.314)" opacity="0.1"><path d="M36.243,225.1c13.526.8,19.227,5.116,19.227,10.427,0,4.9-6,9.408-18.122,9.408s-19.032-5.506-19.509-11.12L1.106,235.023c.412,13.223,14.328,25.427,36.352,25.427,20.029,0,34.466-10.838,34.466-24.928,0-12.811-10.838-22.934-34.965-24.343-14.22-.889-20.419-4.6-20.419-10.708s8.411-10.622,20.224-10.622c12.226,0,21.135,5.311,21.828,11.814l16.908-1c-1.3-16.128-17.341-26.446-38.65-26.446C16.3,174.22,0,185.839,0,200.471.087,214,10.6,223.6,36.243,225.1Z" transform="translate(98.027 -13.852)" fill="#68b3ff"/><rect width="16.888" height="47.792" transform="translate(156.639 139.574)" fill="#68b3ff"/><path d="M77.936,248.6c9.752,0,17.227-4.058,21.355-10.725,4.058,6.9,11.864,10.725,21.83,10.725,9.3,0,16.444-3.607,20.715-9.634v6.976h16.8V187.07H139.344v36.541c0,6.027-5.054,10.749-12.291,10.749s-11.7-4.176-11.7-9.776v-37.7H96.064v36.731c0,6.027-5.054,10.749-12.291,10.749s-11.722-4.176-11.722-9.657V187H52.76v37.585C52.736,239.628,62.489,248.6,77.936,248.6Z" transform="translate(14.892 -105.618)" fill="#68b3ff"/><path d="M139.856,280.08c13.474,0,23.586-5.4,29.564-13.8v11.009h19V186.88H168.175v37.733c-6.1-7.347-15.766-12.08-28.319-12.08-22.416,0-38.306,15.093-38.306,33.724S117.565,280.08,139.856,280.08Zm4.134-52.6c14.047,0,24.184,8.518,24.184,18.755s-10.137,18.879-24.184,18.879c-13.45,0-24.284-8.419-24.284-18.879S130.641,227.478,143.991,227.478Z" transform="translate(-101.55 -186.88)" fill="#68b3ff"/><path d="M44.77,187.414a4.918,4.918,0,1,0-5.24-4.906A5.109,5.109,0,0,0,44.77,187.414Z" transform="translate(120.635 14.669)" fill="#68b3ff"/></g><g transform="translate(257.332 79.025)" opacity="0.1"><rect width="19.962" height="93.828" transform="translate(0 157.059)" fill="#68b3ff"/><path d="M160.142,188.005a5.214,5.214,0,1,1,5.556-5.2A5.417,5.417,0,0,1,160.142,188.005Z" transform="translate(-148.503 -40.388)" fill="#68b3ff"/><path d="M179.449,247.267v-6.438H166V225.913h13.449V174.355h20.211v51.533h16.059V240.8H199.635v4.972c0,7.458,5.618,10.565,16.084,8.03v13.449C194.041,274.588,179.8,267.005,179.449,247.267Z" transform="translate(-138.103 -93.609)" fill="#68b3ff"/><path d="M251.689,268.776l-21.279-36.89-22.578,36.89H187.64l33.607-55.547-13.863-25.2h18.445l46.053,80.746Z" transform="translate(-146.305 -188.03)" fill="#68b3ff"/></g><g transform="translate(214.475 249)" opacity="0.06"><path d="M39.257,225.1c-13.526.8-19.227,5.116-19.227,10.427,0,4.9,6,9.408,18.122,9.408s19.032-5.506,19.509-11.12l16.734,1.214c-.412,13.223-14.328,25.427-36.352,25.427-20.029,0-34.466-10.838-34.466-24.928,0-12.811,10.838-22.934,34.965-24.343,14.22-.889,20.419-4.6,20.419-10.708s-8.411-10.622-20.224-10.622c-12.226,0-21.135,5.311-21.828,11.814L0,200.666c1.3-16.128,17.341-26.446,38.65-26.446,20.55,0,36.85,11.619,36.85,26.25C75.413,214,64.9,223.6,39.257,225.1Z" transform="translate(0 -13.852)" fill="#68b3ff"/><rect width="16.888" height="47.792" transform="translate(0 139.574)" fill="#68b3ff"/><path d="M133.459,248.6c-9.752,0-17.227-4.058-21.355-10.725-4.058,6.9-11.864,10.725-21.83,10.725-9.3,0-16.444-3.607-20.715-9.634v6.976H52.76V187.07H72.051v36.541c0,6.027,5.054,10.749,12.291,10.749s11.7-4.176,11.7-9.776v-37.7h19.291v36.731c0,6.027,5.054,10.749,12.291,10.749s11.722-4.176,11.722-9.657V187h19.291v37.585C158.659,239.628,148.906,248.6,133.459,248.6Z" transform="translate(-52.76 -105.618)" fill="#68b3ff"/><path d="M150.118,280.08c-13.474,0-23.586-5.4-29.564-13.8v11.009h-19V186.88H121.8v37.733c6.1-7.347,15.766-12.08,28.319-12.08,22.416,0,38.306,15.093,38.306,33.724S172.409,280.08,150.118,280.08Zm-4.134-52.6c-14.047,0-24.184,8.518-24.184,18.755s10.137,18.879,24.184,18.879c13.45,0,24.284-8.419,24.284-18.879S159.333,227.478,145.983,227.478Z" transform="translate(-14.897 -186.88)" fill="#68b3ff"/><path d="M44.126,187.414a4.918,4.918,0,1,1,5.24-4.906A5.109,5.109,0,0,1,44.126,187.414Z" transform="translate(-36.004 14.669)" fill="#68b3ff"/></g><g transform="translate(18.066 280.557)" opacity="0.06"><rect width="19.962" height="93.828" fill="#68b3ff"/><path d="M160.142,177.59a5.214,5.214,0,1,0,5.556,5.2A5.417,5.417,0,0,0,160.142,177.59Z" transform="translate(-148.503 -74.321)" fill="#68b3ff"/><path d="M179.449,197.089v6.438H166v14.916h13.449V270h20.211V218.468h16.059V203.552H199.635V198.58c0-7.458,5.618-10.565,16.084-8.03V177.1C194.041,169.768,179.8,177.35,179.449,197.089Z" transform="translate(-138.103 -99.86)" fill="#68b3ff"/><path d="M251.689,188.03,230.41,224.92l-22.578-36.89H187.64l33.607,55.547-13.863,25.2h18.445l46.053-80.746Z" transform="translate(-146.305 -17.889)" fill="#68b3ff"/></g></g></svg>