<svg xmlns="http://www.w3.org/2000/svg" xmlns:xlink="http://www.w3.org/1999/xlink" width="146" height="70" viewBox="0 0 146 70"><defs><clipPath id="a"><rect width="146" height="70" transform="translate(115 742)" fill="#fff"/></clipPath></defs><g transform="translate(-115 -742)" clip-path="url(#a)"><path d="M0,147.415V98.395l24.313,14.068,15.918,9.185L104.4,158.7h0a78.487,78.487,0,0,0,78.445,0h0l43.2-24.874,13.133-7.585a15.938,15.938,0,0,0,7.959-13.8v-1.309a15.9,15.9,0,0,0-7.959-13.777l-14.234-8.312L144.8,42.891,101.719,17.955,123.143,5.486a41.041,41.041,0,0,1,41,0L186.71,18.723l60.262,34.828,19.8,11.367,1.642.956a37.758,37.758,0,0,1,18.868,32.708V125.6A37.778,37.778,0,0,1,268.4,158.325h0l-21.341,12.323-21.736,12.468-39.233,22.63-3.221,1.849a78.383,78.383,0,0,1-78.445,0l-3.221-1.849L61.883,183.178,40.147,170.71Z" transform="matrix(-0.017, -1, 1, -0.017, 80.967, 1033.297)" fill="#68b3ff" opacity="0.15"/><g transform="translate(36.577 239.389)" opacity="0.05"><path d="M52.127,45.89v.9a1.262,1.262,0,0,1-.63,1.093l-.039.022-.675.389-.725.417-1.311.757-.108.062a2.624,2.624,0,0,1-2.622,0l-.108-.062-3.38-1.951V45.882l1.344.775.7.407,1.439.833h0a2.621,2.621,0,0,0,2.622,0h0l1.4-.808.477-.278a.532.532,0,0,0,.266-.46h0a.53.53,0,0,0-.263-.462l-.514-.3-1.438-.833L45.89,43.219l.755-.436a1.37,1.37,0,0,1,1.369,0L50,43.932l.78.45.659.381.054.031A1.26,1.26,0,0,1,52.127,45.89Z" transform="translate(103.595 481.07)" fill="#b3d8fe"/><path d="M52.127,2.41V4.047l-.812-.47-.532-.307L48.639,2.033h0a2.622,2.622,0,0,0-2.62,0h0l-1.443.831-.439.253a.532.532,0,0,0-.266.461v.044a.531.531,0,0,0,.266.46l.476.278L47.29,5.9l1.439.833-.716.416a1.371,1.371,0,0,1-1.37,0l-.754-.442L43.877,5.545l-.662-.38-.055-.032a1.261,1.261,0,0,1-.63-1.093v-.9a1.262,1.262,0,0,1,.631-1.093h0l.713-.412.726-.416L45.911.461,46.018.4a2.618,2.618,0,0,1,2.62,0l.108.062,1.313.754.726.416Z" transform="translate(103.595 520.668)" fill="#b3d8fe"/></g></g></svg>